<svg width="237" height="60" viewBox="0 0 237 60" fill="none" xmlns="http://www.w3.org/2000/svg">
<path d="M235.13 26.2285L235.13 27.7285L236.63 27.7285L236.63 26.2285L235.13 26.2285ZM12 26.2285L12 24.7285L10.5 24.7285L10.5 26.2285L12 26.2285ZM10.9393 59.0607C11.5251 59.6464 12.4748 59.6464 13.0606 59.0607L22.6066 49.5147C23.1924 48.9289 23.1924 47.9792 22.6066 47.3934C22.0208 46.8076 21.071 46.8076 20.4853 47.3934L12 55.8787L3.5147 47.3934C2.92891 46.8076 1.97916 46.8076 1.39338 47.3934C0.807587 47.9792 0.807587 48.9289 1.39337 49.5147L10.9393 59.0607ZM233.63 0.228413L233.63 26.2285L236.63 26.2285L236.63 0.228415L233.63 0.228413ZM235.13 24.7285L12 24.7285L12 27.7285L235.13 27.7285L235.13 24.7285ZM10.5 26.2285L10.5 58L13.5 58L13.5 26.2285L10.5 26.2285Z" fill="#FDF7FF"/>
</svg>
