<svg width="237" height="63" viewBox="0 0 237 63" fill="none" xmlns="http://www.w3.org/2000/svg">
<path d="M2.00004 26L0.500039 26L0.500041 27.5L2.00004 27.5L2.00004 26ZM225.5 26L227 26L227 24.5L225.5 24.5L225.5 26ZM224.439 62.0607C225.025 62.6464 225.975 62.6464 226.561 62.0606L236.107 52.5147C236.692 51.9289 236.692 50.9792 236.107 50.3934C235.521 49.8076 234.571 49.8076 233.985 50.3934L225.5 58.8787L217.015 50.3934C216.429 49.8076 215.479 49.8076 214.893 50.3934C214.308 50.9792 214.308 51.9289 214.893 52.5147L224.439 62.0607ZM0.500045 -3.3107e-05L0.500039 26L3.50004 26L3.50005 -3.55779e-05L0.500045 -3.3107e-05ZM2.00004 27.5L225.5 27.5L225.5 24.5L2.00004 24.5L2.00004 27.5ZM224 26L224 61L227 61L227 26L224 26Z" fill="#FDF7FF"/>
</svg>
